<?xml version="1.0" standalone="no"?>
<!DOCTYPE svg PUBLIC "-//W3C//DTD SVG 20010904//EN"
 "http://www.w3.org/TR/2001/REC-SVG-20010904/DTD/svg10.dtd">
<svg version="1.0" xmlns="http://www.w3.org/2000/svg"
 width="512.000000pt" height="512.000000pt" viewBox="0 0 512.000000 512.000000"
 preserveAspectRatio="xMidYMid meet">
<metadata>
Created by potrace 1.16, written by Peter Selinger 2001-2019
</metadata>
<g transform="translate(0.000000,512.000000) scale(0.100000,-0.100000)"
fill="#000000" stroke-dasharray="5,5" stroke-linecap="round" stroke="none">
<path d="M2453 4765 c-256 -46 -570 -230 -720 -421 -58 -75 -107 -177 -133
-279 -19 -73 -38 -279 -45 -510 -3 -68 -4 -71 -36 -89 -19 -10 -45 -26 -59
-36 -14 -9 -38 -20 -53 -24 -72 -18 -109 -227 -87 -499 11 -148 27 -226 62
-315 23 -59 51 -87 126 -121 57 -27 54 -21 87 -165 8 -37 23 -80 33 -95 12
-17 23 -61 30 -128 6 -56 20 -124 31 -152 28 -75 106 -187 185 -267 76 -76
130 -110 195 -120 l41 -7 0 -53 c0 -49 -2 -54 -25 -60 -35 -9 -193 -103 -264
-158 -33 -26 -72 -63 -87 -84 -25 -34 -34 -39 -134 -63 -75 -19 -129 -39 -178
-68 -68 -39 -72 -40 -109 -28 -32 10 -41 20 -58 62 -11 28 -24 56 -28 63 -12
18 -65 15 -170 -13 -190 -49 -396 -160 -530 -285 -228 -213 -351 -451 -386
-745 -14 -112 -14 -105 3 -105 10 0 16 19 21 63 32 305 145 539 362 748 91 88
169 143 290 203 76 38 293 116 322 116 6 0 -11 -20 -38 -45 -26 -24 -59 -68
-73 -97 -55 -112 -97 -216 -113 -278 -26 -102 -41 -119 -285 -325 -56 -47 -95
-64 -109 -49 -5 5 -11 37 -14 71 l-5 62 39 25 c21 14 43 26 48 26 5 0 15 -16
21 -36 7 -19 14 -34 16 -32 6 7 -16 77 -26 83 -10 6 -65 -19 -92 -43 -17 -14
-18 -13 -18 17 0 27 7 36 53 65 28 18 102 58 163 89 60 30 115 61 121 69 14
17 47 128 40 135 -3 3 -11 -15 -17 -38 -23 -85 -34 -96 -152 -155 -231 -116
-326 -199 -397 -347 -38 -78 -80 -207 -95 -289 -6 -35 -5 -38 17 -38 22 0 26
8 46 83 41 155 135 321 201 357 16 8 18 3 24 -49 7 -65 24 -86 60 -77 27 7
251 200 312 269 33 37 47 65 64 129 27 101 38 126 70 159 14 14 38 45 54 68
34 50 108 101 147 101 44 0 43 -17 0 -40 -94 -48 -188 -171 -245 -322 -13 -36
-32 -78 -42 -92 -9 -15 -88 -92 -175 -172 -131 -120 -170 -162 -223 -242 -73
-111 -100 -161 -92 -170 7 -7 6 -8 41 53 67 119 96 154 158 192 34 21 118 78
187 129 137 99 168 119 178 109 12 -12 64 -160 69 -196 4 -31 0 -39 -30 -65
-20 -16 -74 -51 -121 -78 -47 -27 -109 -71 -138 -97 l-53 -48 192 -1 c179 0
192 1 187 18 -5 16 -5 16 9 0 8 -10 23 -18 34 -18 16 0 22 9 27 42 7 45 68
167 94 191 9 8 35 24 57 36 35 19 40 19 43 5 2 -9 -8 -28 -23 -44 l-26 -27 23
-99 23 -99 69 -3 c61 -3 67 -1 62 15 -14 50 -49 514 -40 538 4 9 20 19 36 22
35 7 51 30 68 98 32 127 191 461 250 528 47 54 151 127 248 176 78 39 74 25
-6 -19 -56 -32 -192 -128 -192 -136 0 -2 33 12 73 32 39 20 101 47 137 60 l65
24 -40 -33 c-22 -17 -71 -63 -110 -102 -54 -55 -75 -83 -92 -130 -36 -97 -46
-150 -41 -223 3 -63 8 -76 52 -143 27 -41 58 -89 70 -107 26 -40 80 -66 171
-82 111 -20 132 -39 165 -145 7 -22 27 -67 45 -100 33 -59 53 -138 58 -224 3
-67 27 -66 27 1 -1 111 -19 190 -60 259 -26 44 -41 84 -46 120 -12 95 -22 103
-155 125 -50 8 -103 21 -119 29 -36 19 -70 62 -63 81 7 20 19 18 56 -10 32
-24 88 -44 182 -66 28 -6 60 -21 73 -32 12 -12 22 -17 22 -11 0 22 -50 53
-128 78 -127 41 -212 118 -212 191 0 49 24 43 38 -10 13 -51 52 -100 96 -123
38 -20 122 -43 156 -43 14 0 42 -13 61 -30 36 -29 47 -50 68 -127 15 -56 40
-63 216 -63 162 0 165 1 230 90 53 72 85 87 267 125 208 44 298 85 386 175 52
54 131 175 120 184 -1 2 -29 16 -60 30 -32 15 -58 32 -58 37 0 5 38 -10 85
-33 46 -23 80 -45 76 -48 -5 -3 -12 -23 -16 -45 -21 -117 -126 -244 -253 -308
-65 -32 -185 -65 -354 -97 -76 -15 -108 -47 -132 -131 -20 -74 -104 -241 -148
-296 -37 -47 -59 -88 -51 -97 14 -13 33 -5 33 15 0 12 17 38 38 58 21 20 55
59 75 86 20 28 52 65 72 84 25 24 41 53 55 102 29 98 52 113 182 129 140 16
225 36 273 64 52 31 204 188 239 249 25 42 166 397 166 418 0 29 -108 91 -255
146 -61 23 -77 32 -50 27 62 -9 251 -73 342 -114 87 -40 109 -63 175 -178 l30
-54 -40 -106 c-23 -59 -77 -215 -121 -347 -44 -132 -112 -314 -151 -405 -38
-90 -70 -168 -70 -172 0 -5 33 -8 73 -8 l72 0 51 83 c29 45 59 97 68 115 9 17
20 32 24 32 19 -1 82 -73 82 -94 0 -6 -25 -38 -55 -71 l-54 -60 41 -3 c31 -3
58 5 113 33 41 21 82 35 96 33 32 -4 23 -20 -19 -35 -77 -26 -59 -33 82 -33
l138 0 -31 35 c-46 52 -42 87 18 177 92 135 181 240 199 233 9 -3 36 -9 59
-12 52 -7 83 15 83 57 0 42 -33 74 -134 134 -97 58 -116 80 -116 142 0 39 46
162 88 239 24 43 32 50 56 48 52 -4 340 -176 439 -263 41 -36 47 -39 47 -21 0
24 -63 76 -188 158 -114 75 -290 165 -315 161 -26 -4 -70 -68 -111 -162 -30
-69 -32 -71 -58 -62 -17 6 -31 22 -41 46 -13 34 -21 40 -78 58 -110 35 -117
35 -145 7 -14 -15 -27 -25 -28 -23 -2 2 -9 23 -17 48 -17 52 -114 202 -156
242 -58 54 -303 142 -486 173 -50 9 -94 18 -96 20 -2 3 22 29 53 60 61 61 109
145 137 244 17 58 34 194 55 419 3 39 9 72 13 72 3 0 7 30 7 66 1 46 6 69 18
77 10 8 21 49 32 120 17 113 23 122 77 133 62 12 124 113 151 246 24 114 21
340 -4 446 -31 131 -69 191 -147 232 l-48 25 -8 84 c-5 55 -15 99 -30 130 -15
29 -26 73 -30 121 -7 86 -56 258 -94 334 -14 28 -43 76 -64 107 l-39 55 -7
128 c-7 146 -17 170 -72 168 -52 -1 -61 -15 -61 -100 l0 -75 -37 38 c-43 44
-175 110 -308 153 -179 59 -381 76 -542 47z m347 -26 c35 -5 66 -11 67 -12 1
-2 -23 -63 -53 -137 -30 -74 -78 -207 -106 -295 -28 -88 -57 -173 -65 -188
-23 -46 -71 -60 -225 -65 l-137 -5 -29 30 c-39 39 -53 124 -53 324 0 136 4
182 27 260 6 22 79 52 174 74 41 9 80 18 85 20 25 8 256 4 315 -6z m278 -81
c113 -45 192 -90 192 -110 0 -7 -16 -72 -36 -143 -19 -72 -51 -231 -70 -355
-45 -290 -69 -406 -89 -436 -22 -33 -64 -58 -155 -91 -180 -64 -181 -64 -201
-97 -10 -17 -19 -35 -19 -41 0 -5 9 4 20 22 24 41 46 51 206 102 137 43 175
64 200 113 21 41 49 175 90 427 18 118 35 216 37 218 7 6 77 -90 83 -113 3
-12 -4 -68 -15 -125 -26 -126 -26 -128 5 -163 34 -38 42 -27 8 13 l-26 31 21
108 c12 59 21 114 21 123 0 9 -15 39 -34 67 l-34 49 34 48 c19 27 34 54 34 61
0 29 21 22 46 -15 l26 -40 -33 -45 -32 -46 36 -78 37 -78 -15 -114 c-20 -148
-20 -374 0 -449 8 -31 26 -84 40 -118 29 -72 32 -157 14 -334 -14 -142 -33
-209 -87 -313 -38 -72 -71 -114 -169 -217 -67 -71 -132 -147 -143 -170 -32
-62 -68 -272 -41 -243 4 5 18 53 31 108 19 87 27 104 62 142 48 52 74 60 29 9
-17 -19 -37 -60 -46 -90 -8 -30 -22 -80 -30 -110 -10 -37 -24 -60 -40 -71 -18
-12 -25 -25 -25 -49 0 -38 -39 -86 -154 -189 l-76 -68 -37 23 c-21 13 -54 35
-73 50 -34 26 -37 27 -141 20 l-107 -6 -52 -44 -51 -43 -27 23 c-52 45 -183
184 -196 209 -8 14 -31 70 -51 125 -60 160 -76 185 -207 317 -95 95 -132 140
-163 198 -54 102 -64 130 -80 240 -16 102 -20 355 -7 346 5 -3 12 -79 16 -168
7 -172 27 -313 47 -332 8 -8 10 -6 5 9 -17 60 -27 147 -32 290 l-5 160 34 -75
c19 -41 42 -96 51 -122 27 -74 66 -120 132 -153 54 -28 67 -30 159 -29 101 1
301 40 332 65 18 15 16 46 -6 117 -16 54 -17 60 -2 55 12 -3 11 0 -4 12 -53
44 -134 71 -354 120 -151 33 -177 33 -230 -7 l-44 -32 -22 28 c-30 38 -43 84
-55 197 -12 115 -12 320 0 249 4 -25 11 -104 15 -175 4 -72 11 -139 16 -150
13 -33 11 63 -7 256 -14 161 -14 188 0 313 10 84 27 171 45 226 30 93 80 184
111 200 16 9 18 -3 22 -168 4 -129 10 -189 21 -222 9 -25 17 -61 17 -80 2 -58
35 -246 42 -230 3 8 0 44 -8 79 -36 179 -51 577 -25 694 15 71 55 119 144 175
77 49 148 85 153 79 3 -3 -2 -48 -11 -101 -30 -186 -18 -349 41 -576 42 -159
61 -196 111 -209 47 -13 250 -2 285 15 41 21 61 63 148 317 45 131 95 268 111
305 32 69 34 116 7 165 -9 17 -22 -15 -85 -209 -87 -268 -94 -285 -135 -309
-52 -30 -331 -44 -393 -19 -16 6 -18 5 -9 -7 6 -8 19 -49 28 -91 9 -42 27 -89
38 -104 l22 -27 114 5 c138 7 140 8 177 133 15 50 31 94 36 99 16 17 10 -13
-21 -114 -21 -69 -37 -102 -53 -112 -28 -19 -224 -33 -260 -19 -14 6 -32 23
-40 38 -13 26 -49 159 -52 193 0 8 -8 26 -17 40 -31 46 -55 296 -39 405 7 53
9 44 10 -72 1 -150 16 -274 37 -316 23 -43 53 -49 219 -45 213 6 221 11 275
189 59 195 97 300 155 427 l39 84 40 -7 c22 -3 87 -24 144 -47z m352 12 c0 -5
-16 -10 -36 -10 -21 0 -33 4 -29 10 3 6 19 10 36 10 16 0 29 -4 29 -10z
m-1239 -66 l-10 -39 1 35 c2 37 7 54 14 47 2 -2 0 -22 -5 -43z m1224 26 c4 -6
-7 -10 -27 -10 -25 0 -29 3 -18 10 19 13 37 13 45 0z m32 -142 c-2 -24 -4 -5
-4 42 0 47 2 66 4 43 2 -24 2 -62 0 -85z m-37 50 l0 -61 -25 23 c-18 17 -25
34 -25 62 0 34 3 38 25 38 24 0 25 -3 25 -62z m-1233 -15 c-3 -10 -5 -4 -5 12
0 17 2 24 5 18 2 -7 2 -21 0 -30z m1311 -173 c42 -66 84 -158 79 -174 -2 -6
-24 30 -48 79 -24 50 -45 92 -47 94 -1 3 -7 0 -13 -6 -9 -9 -23 2 -53 39 -60
74 -60 74 -52 93 6 16 13 13 52 -26 25 -24 62 -69 82 -99z m-1688 26 c0 -2 -8
-10 -17 -17 -16 -13 -17 -12 -4 4 13 16 21 21 21 13z m-64 -89 c-49 -77 -81
-159 -105 -272 -24 -108 -37 -140 -26 -60 20 136 61 246 127 343 41 60 44 52
4 -11z m1724 -62 c0 -5 -5 -3 -10 5 -5 8 -10 20 -10 25 0 6 5 3 10 -5 5 -8 10
-19 10 -25z m75 -130 c2 -84 19 -138 52 -168 28 -25 36 -9 14 27 -40 65 -48
146 -15 146 20 0 41 -48 55 -124 11 -60 11 -69 -4 -84 -16 -15 -19 -15 -52 2
-44 24 -69 76 -71 149 -2 32 -5 81 -8 108 -3 28 -3 56 1 62 12 20 26 -37 28
-118z m30 46 c3 -5 1 -12 -5 -16 -5 -3 -10 1 -10 9 0 18 6 21 15 7z m-1298
-213 c-3 -8 -6 -5 -6 6 -1 11 2 17 5 13 3 -3 4 -12 1 -19z m10 -40 c-3 -8 -6
-5 -6 6 -1 11 2 17 5 13 3 -3 4 -12 1 -19z m1247 13 c3 -5 -1 -15 -10 -22 -29
-24 -44 -68 -44 -127 0 -48 5 -66 30 -104 l30 -46 -22 -58 c-12 -33 -26 -60
-30 -62 -4 -2 -4 -11 -1 -20 4 -10 2 -13 -3 -9 -4 4 -9 20 -10 35 0 15 -2 47
-4 72 l-3 45 -8 -40 c-4 -25 -7 17 -5 110 2 150 7 175 44 218 17 19 28 22 36
8z m-1237 -53 c-3 -8 -6 -5 -6 6 -1 11 2 17 5 13 3 -3 4 -12 1 -19z m1385 -49
c24 -28 38 -84 38 -148 l0 -54 -22 20 c-37 33 -47 35 -78 16 -29 -17 -31 -17
-52 4 -27 27 -37 118 -18 164 13 31 15 31 64 25 35 -4 57 -12 68 -27z m-56
-256 c-45 -127 -86 -415 -86 -598 0 -62 -4 -94 -10 -90 -6 4 -10 56 -10 123 0
176 39 434 82 550 22 59 44 73 24 15z m104 9 c0 -4 19 -13 43 -20 24 -7 54
-23 68 -35 14 -12 19 -18 12 -13 -20 13 -60 -9 -78 -43 -32 -64 -47 -155 -52
-341 -3 -109 -1 -208 5 -240 12 -64 -1 -91 -17 -34 -6 22 -11 44 -11 50 0 6
-7 26 -16 44 -14 28 -16 58 -11 209 8 228 41 382 86 394 11 3 10 5 -5 6 -49 2
-89 -170 -100 -425 -7 -142 -9 -154 -23 -139 -25 25 -19 277 8 413 27 132 47
182 72 182 10 0 19 -4 19 -8z m-2200 -137 c-13 -35 -30 -221 -30 -334 0 -70
-3 -92 -11 -84 -6 6 -13 33 -16 60 -7 81 -12 93 -35 93 -20 0 -21 3 -14 87 9
103 22 140 65 176 41 34 53 34 41 2z m19 -122 c-16 -185 -4 -471 27 -648 4
-26 3 -27 -7 -12 -37 61 -62 480 -40 675 7 57 15 110 18 118 13 35 14 -3 2
-133z m2348 81 c34 -59 46 -158 41 -333 -4 -136 -8 -164 -29 -215 -13 -33 -36
-68 -51 -79 -25 -19 -29 -19 -51 -4 -50 33 -77 140 -77 307 0 171 32 323 76
367 23 23 27 24 47 10 12 -8 32 -32 44 -53z m-2484 -292 c-1 -159 -5 -296 -9
-306 -9 -24 12 -119 41 -185 21 -47 22 -52 6 -33 -31 36 -61 127 -78 236 -19
121 -21 407 -4 481 10 41 35 95 44 95 1 0 1 -130 0 -288z m562 92 c178 -34
262 -73 296 -137 9 -15 2 -12 -27 11 -68 53 -127 65 -327 68 -102 1 -183 6
-188 11 -7 7 6 21 38 42 53 35 48 35 208 5z m-117 -269 c71 -46 135 -52 322
-30 l45 5 -45 -15 c-25 -9 -89 -19 -142 -22 -111 -7 -165 7 -214 55 -32 32
-74 117 -74 152 0 18 11 4 36 -48 25 -52 46 -79 72 -97z m87 155 c3 -6 -5 -10
-19 -10 -14 0 -28 5 -31 10 -3 6 5 10 19 10 14 0 28 -4 31 -10z m70 0 c-3 -5
-17 -10 -31 -10 -13 0 -24 5 -24 10 0 6 14 10 31 10 17 0 28 -4 24 -10z m66
-50 c11 0 22 7 25 15 7 18 30 20 40 3 18 -29 -77 -53 -104 -26 -16 16 -15 45
1 51 7 2 13 -6 15 -20 2 -15 10 -23 23 -23z m-71 17 c0 -6 10 -21 22 -34 32
-34 81 -31 120 8 l31 30 38 -37 c22 -21 39 -41 39 -44 0 -3 -55 -5 -123 -5
-129 1 -149 6 -200 53 -24 23 -25 27 -11 32 29 10 84 8 84 -3z m1630 -212 c7
-61 20 -134 29 -162 10 -29 14 -53 10 -53 -19 0 -58 208 -59 314 0 50 10 0 20
-99z m-159 -112 c-41 -87 -111 -184 -164 -226 -74 -60 -74 -53 2 28 59 64 84
102 130 196 42 88 57 111 59 92 2 -13 -10 -54 -27 -90z m293 42 c21 -38 44
-50 79 -39 22 7 22 7 3 -15 -38 -42 -87 -13 -111 67 -10 34 8 26 29 -13z m-6
-80 c4 -6 -1 -2 -10 8 -10 11 -18 27 -17 36 0 10 4 7 10 -8 5 -14 13 -30 17
-36z m-267 -132 c-15 -78 -52 -203 -61 -203 -4 0 -13 13 -19 29 l-12 28 -69
-68 c-54 -54 -69 -76 -75 -108 -8 -48 -2 -61 29 -61 46 0 82 69 64 121 -10 28
-8 34 19 61 l30 30 13 -32 c24 -58 -34 -149 -170 -264 -36 -31 -69 -56 -74
-56 -21 0 31 198 71 268 13 23 27 42 31 42 4 0 31 20 59 45 42 37 55 56 68
101 20 69 29 66 15 -5 -7 -38 -6 -57 3 -71 6 -11 14 -20 18 -20 8 0 37 106 52
192 6 40 13 63 15 51 2 -12 -2 -48 -7 -80z m-1954 -7 c13 -26 19 -45 13 -41
-15 9 -50 84 -49 105 1 13 1 13 6 0 3 -8 17 -37 30 -64z m2073 41 c0 -1 -6
-38 -13 -82 -8 -45 -12 -131 -11 -195 4 -133 -19 -393 -43 -495 -30 -129 -83
-218 -164 -275 l-27 -20 -22 65 c-16 47 -20 80 -17 113 10 90 13 212 5 212 -4
0 -8 34 -8 76 l0 76 49 55 c27 30 63 83 79 117 29 58 82 265 82 318 0 14 2 27
5 29 4 5 85 10 85 6z m47 -14 c-3 -10 -8 -35 -12 -57 -3 -21 -9 -36 -12 -33
-9 9 8 107 19 107 5 0 7 -8 5 -17z m-2067 -67 c0 -12 -14 5 -31 39 -8 16 -6
15 10 -4 12 -13 21 -28 21 -35z m2107 -8 c-3 -7 -5 -2 -5 12 0 14 2 19 5 13 2
-7 2 -19 0 -25z m-10 -40 c-3 -8 -6 -5 -6 6 -1 11 2 17 5 13 3 -3 4 -12 1 -19z
m-1922 -110 c16 -57 48 -142 72 -190 36 -72 61 -105 148 -192 l104 -104 6 -79
c3 -43 8 -95 10 -115 5 -35 3 -38 -20 -38 -62 0 -158 71 -244 180 -100 126
-144 252 -140 394 2 49 -4 96 -19 150 -12 43 -19 82 -16 87 3 5 20 9 38 9 l33
0 28 -102z m47 12 c21 -65 29 -77 68 -105 25 -17 52 -45 62 -61 21 -37 62
-142 50 -129 -5 6 -19 35 -31 66 -24 62 -56 102 -74 96 -16 -5 -11 -31 19 -96
19 -41 20 -50 7 -40 -24 20 -78 143 -108 244 -24 84 -30 113 -20 104 2 -3 15
-38 27 -79z m-194 -5 c0 -29 0 -29 -8 -5 -4 14 -8 39 -8 55 0 29 0 29 8 5 4
-14 8 -38 8 -55z m2013 -35 c-9 -23 -10 -21 -10 16 -1 22 2 44 7 48 11 12 14
-37 3 -64z m-1977 -15 c4 -26 3 -35 -3 -25 -5 8 -12 35 -15 60 -7 55 8 24 18
-35z m280 13 c47 -84 57 -117 14 -48 -35 58 -61 110 -53 110 2 0 20 -28 39
-62z m-307 -30 c-3 -8 -6 -5 -6 6 -1 11 2 17 5 13 3 -3 4 -12 1 -19z m1703
-25 c-1 -5 -7 -19 -15 -33 l-14 -25 -1 26 c0 14 3 29 7 32 9 9 23 9 23 0z
m280 -218 c-28 -269 -51 -355 -126 -457 -40 -54 -101 -105 -112 -94 -4 4 2 12
13 18 40 22 111 105 139 163 35 75 61 201 76 370 12 143 21 208 27 202 2 -2
-6 -93 -17 -202z m-1933 113 c-2 -13 -4 -5 -4 17 -1 22 1 32 4 23 2 -10 2 -28
0 -40z m1393 -53 c-13 -14 -26 -23 -28 -20 -7 7 29 45 41 45 6 0 0 -11 -13
-25z m-1383 -42 c-3 -10 -5 -2 -5 17 0 19 2 27 5 18 2 -10 2 -26 0 -35z m1465
20 c-6 -30 -84 -107 -247 -242 -122 -101 -166 -126 -244 -141 -67 -12 -238
-13 -245 -1 -3 5 -14 7 -24 5 -26 -7 -95 42 -229 165 -124 112 -147 140 -141
167 2 9 43 -22 118 -91 63 -57 131 -116 150 -130 l36 -25 52 49 52 49 98 4
c92 4 99 3 132 -21 19 -14 54 -38 77 -53 l43 -27 109 92 c59 50 143 122 186
160 43 37 79 67 80 67 1 0 0 -12 -3 -27z m-1140 -67 c9 -17 7 -17 -21 3 -17
12 -31 30 -31 38 0 14 3 13 21 -3 11 -10 25 -27 31 -38z m1270 12 c-7 -7 -13
-37 -14 -67 l-2 -56 -3 49 c-4 46 13 104 26 91 2 -3 -1 -11 -7 -17z m-1547
-98 c85 -165 251 -320 343 -320 17 0 32 -4 32 -10 0 -18 -60 -10 -108 14 -27
14 -74 51 -106 83 -94 93 -207 274 -205 328 0 11 6 2 13 -20 7 -22 21 -56 31
-75z m1456 -416 c-6 -133 -11 -286 -11 -340 0 -54 -3 -116 -7 -137 l-6 -38
-51 5 -51 6 35 -17 c19 -10 41 -30 50 -46 17 -30 21 -18 -51 -138 -19 -32 -42
-71 -51 -88 -14 -25 -24 -31 -49 -31 -21 0 -30 4 -26 13 2 6 15 44 27 84 23
71 23 71 55 66 26 -4 36 0 53 22 38 48 20 105 -33 105 -29 0 -65 -43 -65 -78
0 -36 -50 -185 -71 -213 -10 -13 -21 -20 -25 -16 -8 8 50 207 97 329 21 57 33
113 44 220 18 168 23 194 35 182 5 -5 4 -45 -2 -93 -6 -55 -6 -87 0 -93 7 -7
12 13 16 58 4 38 9 81 11 95 2 14 -3 38 -11 53 -7 16 -12 31 -10 35 3 3 12
105 21 226 l17 220 31 27 32 27 3 -102 c2 -56 -1 -210 -7 -343z m109 301 c0
-52 -1 -55 -25 -55 -24 0 -25 3 -25 55 0 52 1 55 25 55 24 0 25 -3 25 -55z
m-1156 -105 c19 -128 40 -409 32 -417 -3 -4 -1 -12 5 -20 9 -10 7 -13 -8 -13
-25 0 -33 38 -33 161 0 87 -16 331 -25 384 -4 19 -2 26 5 19 5 -5 16 -57 24
-114z m812 45 c-39 -35 -88 -73 -110 -85 l-41 -21 29 23 c16 13 61 51 100 85
93 82 111 80 22 -2z m82 -16 c2 -19 -12 -41 -56 -89 -58 -63 -82 -72 -82 -29
0 23 109 150 125 145 6 -1 11 -14 13 -27z m-788 -110 c5 -35 14 -122 20 -194
6 -71 13 -140 15 -152 7 -31 -39 -63 -59 -42 -12 13 -36 325 -36 464 l0 40 26
-26 c19 -19 27 -42 34 -90z m1050 77 c0 -30 -13 -46 -36 -46 -24 0 -30 14 -18
44 8 20 54 21 54 2z m-974 -83 c3 -16 10 -44 15 -63 5 -19 9 -44 9 -55 -1 -31
-17 2 -30 61 -6 27 -13 57 -16 67 -3 9 -1 17 5 17 6 0 13 -12 17 -27z m700
-20 c-10 -10 -19 5 -10 18 6 11 8 11 12 0 2 -7 1 -15 -2 -18z m248 -5 c3 -13
8 -59 11 -103 3 -44 12 -111 19 -150 12 -62 12 -71 -3 -82 -9 -7 -20 -11 -26
-9 -24 7 -44 236 -29 329 7 41 21 49 28 15z m-884 -18 c0 -25 -18 -36 -26 -16
-8 21 3 49 16 41 5 -3 10 -15 10 -25z m640 -10 c0 -5 -7 -10 -15 -10 -8 0 -15
5 -15 10 0 6 7 10 15 10 8 0 15 -4 15 -10z m-96 -89 c-5 -91 -17 -136 -40
-162 -21 -24 -45 -8 -36 23 l5 22 -27 -21 c-62 -49 -287 -58 -360 -15 -34 20
-36 20 -26 3 5 -11 7 -27 4 -35 -4 -9 0 -24 7 -34 7 -9 -2 -3 -20 14 -34 33
-50 80 -51 152 0 49 26 60 35 15 18 -86 40 -107 130 -124 98 -18 243 4 298 46
11 8 21 32 24 57 4 30 14 50 32 65 14 12 21 22 15 23 -6 0 -17 -6 -23 -14 -22
-26 -108 -56 -187 -64 -105 -12 -210 0 -271 31 -64 33 -75 47 -58 70 11 16 13
15 25 -12 19 -47 86 -74 193 -79 148 -7 271 28 305 89 9 16 20 29 24 29 4 0 5
-35 2 -79z m96 49 c0 -5 -7 -10 -15 -10 -8 0 -15 5 -15 10 0 6 7 10 15 10 8 0
15 -4 15 -10z m298 -55 l1 -20 -9 20 c-5 11 -8 31 -8 45 l0 25 8 -25 c4 -14 8
-34 8 -45z m-308 8 c0 -47 -31 -333 -40 -368 -13 -55 -11 -67 5 -25 7 19 14
29 14 22 2 -35 -57 -132 -80 -132 -5 0 3 29 16 64 26 68 41 171 51 349 5 82 9
107 20 107 8 0 14 -8 14 -17z m-645 -127 c5 -29 21 -54 61 -96 44 -46 57 -69
70 -116 8 -34 26 -70 40 -84 23 -23 31 -25 123 -25 130 0 145 12 180 143 13
47 31 56 31 15 0 -55 -20 -101 -60 -137 -33 -30 -49 -36 -88 -38 -103 -4 -177
4 -204 23 -29 21 -72 104 -82 160 -4 21 -20 48 -41 69 -35 34 -56 97 -54 163
l1 32 8 -35 c5 -19 12 -53 15 -74z m676 -21 l-8 -80 -2 60 c-1 63 11 155 16
120 2 -11 -1 -56 -6 -100z m341 10 l22 -30 -25 22 c-13 12 -32 37 -42 55 l-19
33 21 -25 c12 -14 31 -38 43 -55z m223 -8 c70 -25 205 -97 205 -108 0 -16 -64
-189 -70 -188 -3 0 -20 31 -38 70 -32 67 -65 104 -212 237 l-45 41 60 -18 c33
-11 78 -26 100 -34z m-380 -152 c6 -65 5 -78 -5 -68 -9 8 -14 49 -16 120 -3
121 9 91 21 -52z m-306 99 c-19 -19 -66 -51 -105 -70 -65 -33 -79 -36 -161
-36 -91 0 -169 21 -188 52 -4 7 -4 11 1 8 5 -2 27 -13 49 -24 31 -15 61 -19
135 -19 84 0 102 3 151 28 32 15 77 45 100 66 54 48 66 44 18 -5z m591 -19 c0
-16 -6 -25 -15 -25 -9 0 -15 9 -15 25 0 16 6 25 15 25 9 0 15 -9 15 -25z
m-1177 -92 c14 -43 27 -95 31 -115 6 -34 5 -38 -14 -38 -11 0 -20 6 -20 13 0
6 -18 47 -40 90 -35 67 -39 81 -28 95 37 48 44 43 71 -45z m1151 7 c-3 -19
-20 -65 -36 -102 -32 -70 -61 -107 -72 -89 -4 5 -2 12 4 16 16 10 58 99 53
112 -3 7 3 16 12 19 11 5 13 9 5 14 -8 5 -8 19 1 55 11 44 13 46 26 29 8 -11
11 -31 7 -54z m-1275 18 c45 -100 92 -279 116 -440 6 -40 5 -48 -8 -48 -17 0
-39 84 -52 193 -6 53 -24 87 -46 87 -5 0 -18 -9 -29 -20 -20 -20 -20 -20 -20
0 0 11 4 20 8 20 5 0 17 7 28 15 17 13 16 14 -16 5 -19 -6 -36 -10 -37 -10 -2
0 -3 54 -3 120 0 114 1 120 20 120 14 0 26 -13 39 -42z m1121 23 c0 -6 18 -31
40 -56 45 -52 48 -63 22 -95 -29 -36 -58 -19 -95 56 l-32 65 25 19 c28 22 40
25 40 11z m-1197 -108 c-7 -91 -18 -108 -33 -57 -12 42 -11 97 3 92 5 -2 13 5
18 15 6 9 12 17 13 17 2 0 1 -30 -1 -67z m1086 -55 c18 -81 14 -114 -14 -132
-32 -21 -33 -21 -49 17 -11 27 -11 34 1 48 7 9 16 47 20 84 5 58 8 65 19 50 7
-9 18 -39 23 -67z m-1583 3 c-15 -28 -42 -65 -61 -83 -37 -33 -105 -157 -105
-190 0 -11 -4 -16 -10 -13 -5 3 -10 33 -10 66 0 92 42 161 143 234 33 25 62
43 64 41 3 -2 -7 -27 -21 -55z m848 -112 c30 -86 58 -168 61 -182 6 -23 12
-27 45 -27 20 0 65 -3 99 -6 l61 -7 31 69 c17 38 42 93 55 123 34 75 40 58 9
-24 -55 -147 -76 -185 -99 -180 -11 2 -64 7 -116 10 -70 4 -100 2 -112 -7 -18
-14 -56 -94 -40 -84 5 3 15 19 22 36 16 39 35 43 145 33 l90 -8 -1 -61 c0 -38
-8 -75 -20 -100 l-19 -39 -103 -3 -103 -3 -16 38 c-9 21 -18 61 -21 88 -4 44
-1 55 22 82 15 18 36 35 46 38 15 5 18 11 11 23 -14 26 -80 219 -101 296 -32
113 -6 62 54 -105z m-384 -37 c12 -28 12 -32 1 -32 -14 0 -51 141 -50 190 1
39 3 33 20 -45 10 -49 23 -100 29 -113z m-540 172 c0 -3 -20 -29 -45 -57 -59
-68 -85 -122 -85 -180 l0 -47 -80 0 -80 0 26 53 c39 79 130 193 167 210 57 26
97 35 97 21z m794 -74 c17 0 25 -6 24 -17 0 -10 8 -58 17 -107 21 -114 18
-171 -10 -171 -18 0 -22 12 -37 100 -14 88 -24 139 -43 235 -4 20 -2 18 10 -7
11 -24 22 -33 39 -33z m1176 6 c0 -12 -10 -41 -21 -65 l-20 -45 -30 31 -31 31
27 45 c24 43 28 45 51 35 14 -7 24 -20 24 -32z m-2165 -31 c-21 -25 -55 -78
-76 -118 -45 -85 -52 -70 -10 20 28 58 108 159 119 149 2 -3 -13 -25 -33 -51z
m1955 43 c0 -14 -50 -68 -62 -68 -10 0 8 37 30 63 18 20 32 22 32 5z m-1296
-20 c-4 -13 -12 -44 -18 -70 -9 -36 -14 -45 -25 -39 -17 11 -9 72 14 107 20
31 39 32 29 2z m1516 -72 c-30 -79 -36 -64 -8 21 13 39 24 62 26 53 2 -9 -7
-42 -18 -74z m-199 45 c-11 -24 -10 -34 4 -61 9 -18 15 -41 12 -51 -8 -32 3
-21 21 19 14 33 16 35 20 14 5 -35 -14 -74 -57 -116 -62 -61 -122 -65 -157
-11 -16 25 -16 27 3 53 11 15 30 28 42 30 27 4 61 -24 61 -50 0 -22 8 -23 32
-1 23 21 23 42 -2 73 -25 32 -25 44 1 97 23 48 39 51 20 4z m-2029 2 c-6 -2
-10 -9 -7 -14 3 -4 -5 -25 -19 -46 -14 -21 -32 -57 -41 -80 -15 -37 -21 -43
-47 -43 -26 0 -29 3 -23 23 16 52 52 103 85 119 19 10 36 22 36 28 3 18 4 20
17 19 9 0 9 -2 -1 -6z m2941 -29 c-34 -17 -71 -74 -109 -171 -27 -67 -31 -73
-58 -73 -27 0 -28 2 -23 34 8 53 70 178 105 212 30 30 34 31 72 22 l41 -11
-28 -13z m-2096 -71 c-2 -16 -4 -3 -4 27 0 30 2 43 4 28 2 -16 2 -40 0 -55z
m85 27 c2 -15 -2 -25 -9 -25 -7 0 -13 3 -13 8 0 4 0 19 0 34 0 33 17 20 22
-17z m-49 -8 c4 -21 3 -31 -3 -27 -6 3 -10 20 -10 37 0 38 5 34 13 -10z m890
26 c7 -20 -12 -48 -33 -48 -21 0 -36 17 -25 28 4 4 10 1 12 -5 8 -24 25 -13
21 12 -5 26 16 37 25 13z m1220 -14 c34 -9 65 -18 69 -20 4 -3 -3 -26 -15 -52
-13 -26 -34 -74 -47 -107 -13 -33 -25 -62 -26 -64 -2 -2 -27 2 -56 8 -29 7
-63 14 -75 17 -13 2 -23 10 -23 17 0 16 99 217 106 217 4 0 34 -7 67 -16z
m-1630 -34 c73 0 98 -3 90 -11 -16 -16 -198 -8 -215 10 -11 12 -10 13 5 7 10
-3 64 -6 120 -6z m-545 -44 c12 -32 52 -74 98 -103 16 -10 16 -12 3 -12 -30
-2 -84 44 -109 92 -14 26 -28 47 -32 47 -3 0 -12 -16 -18 -35 -12 -37 -30 -47
-30 -17 0 28 29 62 54 62 16 0 25 -9 34 -34z m2334 -122 l16 -45 -33 -64 -33
-63 -31 32 c-17 18 -31 38 -31 46 0 7 3 10 7 6 4 -3 21 25 39 64 18 38 36 70
41 70 4 0 16 -21 25 -46z m-3355 -18 c-35 -58 -44 -65 -27 -20 9 24 47 74 56
74 1 0 -12 -24 -29 -54z m64 14 c-16 -23 -35 -64 -42 -92 -11 -43 -15 -47 -20
-27 -13 51 40 159 78 159 8 0 2 -15 -16 -40z m99 34 c0 -4 -9 -22 -21 -40 -16
-26 -27 -34 -50 -34 -45 0 -26 -17 26 -23 25 -2 48 -6 50 -8 2 -2 -2 -23 -8
-47 -12 -45 -17 -48 -89 -36 -32 6 -38 11 -38 31 0 61 66 163 106 163 13 0 24
-3 24 -6z m180 -53 c0 -20 -18 -31 -51 -31 -21 0 -25 20 -7 38 20 20 58 15 58
-7z m2615 -51 c3 -6 3 -20 -1 -32 l-7 -22 -18 23 c-11 13 -19 27 -19 32 0 12
37 11 45 -1z m165 -31 c19 -10 -68 1 -95 12 -12 5 -1 6 30 3 28 -4 57 -10 65
-15z m-1419 -32 c-13 -13 -15 1 -4 30 7 17 8 17 11 -1 2 -10 -1 -23 -7 -29z
m1392 8 c39 -6 46 -20 24 -48 -10 -15 -22 -17 -69 -11 -75 9 -81 13 -67 51 9
29 13 30 42 23 18 -5 49 -11 70 -15z m-2786 -21 c-3 -20 -8 -39 -11 -41 -10
-11 -44 9 -49 28 -9 33 3 49 35 49 30 0 30 -1 25 -36z m2580 -22 c-8 -21 -19
-48 -25 -62 l-11 -25 0 30 c-1 35 39 126 46 107 3 -8 -1 -30 -10 -50z m27 -34
c-8 -49 -20 -69 -30 -45 -7 19 14 87 27 87 5 0 6 -18 3 -42z m270 -27 c-4 -28
-11 -51 -16 -51 -8 0 -4 48 9 93 9 35 14 9 7 -42z m85 -33 c-26 -51 -29 -56
-29 -37 0 15 36 79 45 79 3 0 -4 -19 -16 -42z m-156 13 c4 -4 -15 -5 -43 -1
-27 3 -52 9 -55 12 -9 8 89 -3 98 -11z m-3000 -41 c26 0 47 -4 47 -10 0 -5
-21 -10 -48 -10 -51 0 -92 21 -92 47 0 14 4 13 23 -5 17 -16 36 -22 70 -22z
m2980 21 c14 -1 17 -10 17 -54 l0 -54 -62 9 c-34 4 -64 10 -66 13 -7 7 -19 79
-15 91 2 7 22 8 56 3 28 -4 60 -8 70 -8z m177 -58 c-11 -17 -11 -17 -6 0 3 10
6 24 7 30 0 9 2 9 5 0 3 -7 0 -20 -6 -30z m-374 -45 c4 -6 1 -14 -6 -18 -19
-12 -50 0 -50 20 0 13 6 16 25 12 14 -2 28 -9 31 -14z m-2736 -28 c0 -16 -27
-23 -57 -15 -21 5 -24 8 -12 16 19 12 69 11 69 -1z m2971 -81 c-28 -23 -89
-25 -117 -4 -17 13 -13 14 48 15 37 0 70 5 73 11 4 6 10 7 14 4 3 -4 -5 -15
-18 -26z m-3132 -109 c0 -10 -3 -8 -9 5 -12 27 -12 43 0 25 5 -8 9 -22 9 -30z"/>
<path d="M2967 4532 c-18 -19 -22 -49 -9 -68 23 -35 80 -38 130 -8 29 19 28
39 -3 69 -30 31 -93 34 -118 7z m88 -18 c9 -9 15 -24 13 -33 -5 -22 -59 -31
-80 -13 -22 19 -22 26 -2 46 20 21 48 20 69 0z"/>
<path d="M2001 4472 c-64 -30 -83 -102 -23 -87 34 8 82 53 82 76 0 25 -22 29
-59 11z m19 -37 c-22 -24 -50 -33 -50 -17 0 8 50 41 64 42 5 0 -1 -11 -14 -25z"/>
<path d="M3061 4359 c-7 -55 -83 -559 -91 -599 -6 -35 -20 -65 -38 -85 l-27
-30 32 29 c17 15 34 38 37 51 13 53 96 619 92 629 -2 6 -5 8 -5 5z"/>
<path d="M1942 4288 c-1 -14 -5 -35 -8 -45 -5 -14 -4 -15 5 -7 7 7 11 26 8 45
-3 28 -4 29 -5 7z"/>
<path d="M1744 4154 c3 -16 10 -74 17 -129 18 -161 56 -378 75 -424 21 -52 29
-48 11 5 -20 55 -54 244 -76 417 -10 81 -21 150 -25 154 -3 4 -4 -7 -2 -23z"/>
<path d="M1925 4065 c4 -128 31 -340 47 -365 7 -12 8 -10 4 5 -10 40 -37 255
-46 366 l-9 114 4 -120z"/>
<path d="M1672 3910 c0 -19 2 -27 5 -17 2 9 2 25 0 35 -3 9 -5 1 -5 -18z"/>
<path d="M1681 3844 c0 -11 3 -14 6 -6 3 7 2 16 -1 19 -3 4 -6 -2 -5 -13z"/>
<path d="M3281 3806 c-12 -15 -1 -59 18 -71 22 -13 51 6 51 34 0 45 -43 69
-69 37z"/>
<path d="M1657 3782 c-19 -21 -22 -57 -6 -67 17 -11 50 26 47 54 -4 31 -20 37
-41 13z"/>
<path d="M3248 3716 c-31 -97 -97 -238 -124 -267 -20 -20 -61 -39 -158 -69
-187 -60 -244 -81 -256 -95 -6 -7 22 0 62 16 40 16 126 45 191 65 152 48 170
60 208 136 42 83 101 237 97 253 -2 8 -11 -10 -20 -39z"/>
<path d="M1701 3715 c-2 -39 49 -237 71 -278 25 -46 32 -49 278 -118 97 -28
120 -38 150 -68 19 -20 40 -45 47 -56 11 -19 11 -19 6 1 -2 12 -18 38 -34 58
-32 38 -31 37 -311 120 -105 32 -117 45 -152 172 -46 164 -54 189 -55 169z"/>
<path d="M3250 3633 c-47 -126 -84 -197 -120 -227 -21 -17 -95 -46 -227 -88
-189 -61 -243 -88 -243 -121 0 -29 32 -28 65 2 22 19 76 43 162 71 252 84 285
107 334 235 51 131 78 215 70 215 -5 0 -23 -39 -41 -87z"/>
<path d="M1670 3679 c0 -25 59 -238 74 -266 26 -51 55 -66 209 -110 139 -39
177 -58 177 -85 0 -13 -25 -10 -180 28 -136 32 -151 34 -177 21 -15 -8 -37
-25 -48 -38 -15 -17 -9 -15 26 10 l45 32 206 -53 c114 -29 209 -50 213 -46 10
10 -4 47 -27 68 -22 20 -47 28 -258 86 -68 19 -133 42 -143 52 -31 28 -53 81
-82 197 -27 108 -35 132 -35 104z"/>
<path d="M2000 3655 c13 -14 26 -25 28 -25 3 0 -5 11 -18 25 -13 14 -26 25
-28 25 -3 0 5 -11 18 -25z"/>
<path d="M3366 3486 c-6 -110 -5 -139 8 -163 14 -27 13 -32 -4 -60 -36 -60
-52 -64 -137 -36 -69 23 -80 25 -129 14 -61 -14 -73 -29 -18 -23 20 3 76 -4
126 -14 77 -16 87 -20 72 -31 -12 -9 -62 -12 -168 -12 -205 0 -331 -26 -400
-83 -35 -28 -76 -115 -76 -161 -1 -21 -1 -21 -14 -4 -17 22 -10 88 14 137 28
56 64 87 116 103 27 8 122 44 212 81 89 36 174 66 187 66 14 0 41 -7 61 -15
19 -8 32 -10 29 -5 -3 4 -25 16 -49 25 l-43 17 -179 -70 c-98 -38 -201 -75
-229 -82 -69 -18 -91 -33 -116 -83 -34 -66 -36 -89 -29 -328 6 -212 8 -227 32
-277 14 -29 24 -62 21 -73 -6 -23 -19 -25 -27 -4 -7 20 -70 20 -87 -1 -12 -14
-14 -14 -20 4 -5 12 -21 22 -43 26 l-36 7 -3 287 -2 287 -3 -288 c-2 -281 -3
-289 -22 -294 -20 -5 -20 -6 -3 -26 l18 -21 -28 17 c-16 11 -36 15 -47 12 -26
-8 -26 13 0 88 11 31 20 78 19 104 l-1 48 -13 -60 c-7 -33 -20 -75 -30 -93
-19 -38 -22 -96 -6 -116 17 -21 132 -49 179 -44 l41 3 4 -80 3 -80 2 88 2 87
43 0 c33 0 49 6 65 23 30 31 28 64 -8 131 -27 52 -30 68 -36 194 -6 127 -5
139 13 161 l20 24 119 -17 c65 -9 134 -19 153 -21 56 -7 181 13 236 39 90 41
150 125 172 241 4 16 21 52 40 80 l33 50 0 -57 c0 -85 -37 -285 -64 -342 -27
-59 -68 -112 -196 -251 -88 -95 -152 -201 -175 -285 -4 -14 16 20 43 75 40 80
70 121 147 205 151 166 191 222 214 310 43 164 52 321 22 398 -16 41 -18 65
-14 175 3 70 4 127 1 127 -3 0 -8 -60 -12 -134z m-101 -398 c-19 -92 -68 -156
-145 -192 -38 -18 -63 -21 -160 -20 -80 1 -129 6 -160 17 -30 11 -35 15 -15
12 212 -36 321 -19 397 62 29 30 67 107 68 136 0 9 5 17 11 17 7 0 8 -12 4
-32z m-275 -2 c0 -7 14 -19 31 -26 l30 -13 -28 -18 c-40 -27 -96 -24 -130 5
-24 20 -25 26 -14 40 18 21 31 20 31 -3 0 -24 24 -44 47 -39 13 2 18 13 18 36
0 17 3 32 7 32 5 0 8 -6 8 -14z m80 -1 c-15 -18 -51 -16 -58 3 -2 8 8 12 33
12 33 0 36 -2 25 -15z m60 6 c0 -23 -50 -79 -90 -98 -37 -19 -60 -23 -145 -23
-67 0 -109 -5 -127 -14 l-28 -15 15 28 c7 15 30 42 50 60 l37 32 40 -37 c36
-33 45 -36 83 -31 52 5 98 36 115 77 11 27 50 44 50 21z m-273 -17 c-3 -3 -12
-4 -19 -1 -8 3 -5 6 6 6 11 1 17 -2 13 -5z"/>
<path d="M1880 3558 c14 -30 62 -53 177 -87 55 -16 78 -29 98 -54 15 -17 22
-23 17 -12 -18 37 -49 56 -147 90 -59 20 -109 45 -127 62 l-30 28 12 -27z"/>
<path d="M2315 3363 c3 -23 11 -59 18 -80 l12 -38 102 0 c56 0 105 3 109 8 4
4 9 35 10 70 l2 62 -6 -57 c-8 -65 -18 -81 -30 -47 l-9 24 -7 -23 c-7 -20 -14
-22 -81 -22 -48 0 -77 4 -81 12 -5 7 -16 40 -26 73 -16 52 -18 54 -13 18z"/>
<path d="M2434 3078 l-19 -23 23 19 c21 18 27 26 19 26 -2 0 -12 -10 -23 -22z"/>
<path d="M2331 3015 c1 -19 18 -51 18 -35 0 8 -4 22 -9 30 -5 8 -9 11 -9 5z"/>
<path d="M2353 2925 c0 -22 2 -30 4 -17 2 12 2 30 0 40 -3 9 -5 -1 -4 -23z"/>
<path d="M3115 2758 c-49 -49 -86 -88 -81 -88 21 0 188 166 175 173 -2 1 -44
-37 -94 -85z"/>
<path d="M1775 2775 c59 -54 145 -118 150 -114 2 3 -40 37 -93 77 -53 40 -79
56 -57 37z"/>
<path d="M1740 2771 c5 -11 15 -23 21 -27 6 -3 3 5 -6 20 -20 30 -30 35 -15 7z"/>
<path d="M1893 2736 c52 -51 97 -84 97 -72 0 3 -35 32 -77 66 l-78 62 58 -56z"/>
<path d="M1780 2736 c0 -2 8 -10 18 -17 15 -13 16 -12 3 4 -13 16 -21 21 -21
13z"/>
<path d="M1820 2704 c0 -5 30 -39 68 -74 l67 -65 -65 70 c-36 38 -66 71 -67
74 -2 2 -3 0 -3 -5z"/>
<path d="M1936 2448 c39 -43 87 -108 108 -147 20 -39 39 -71 42 -71 2 0 -11
30 -30 68 -38 76 -108 165 -158 201 -20 15 -4 -6 38 -51z"/>
<path d="M2340 2139 c-58 -24 -79 -28 -96 -20 -18 8 -24 6 -28 -6 -4 -9 -5
-16 -4 -17 2 -1 16 -12 33 -26 28 -24 29 -24 10 -2 l-19 24 99 -9 c125 -10
173 -10 305 1 l105 8 -35 -37 c-58 -61 -82 -70 -202 -70 -99 0 -108 2 -132 24
-14 14 -26 28 -26 32 0 4 64 9 143 11 93 2 149 8 162 16 19 13 19 13 -5 7 -14
-3 -91 -9 -172 -12 -161 -6 -160 -6 -111 -67 26 -32 108 -50 188 -40 65 9 90
22 145 79 56 58 89 77 113 64 22 -13 24 13 2 31 -12 10 -19 10 -27 2 -18 -18
-47 -15 -128 13 -80 27 -110 31 -127 14 -8 -8 -22 -8 -49 0 -54 15 -60 14
-144 -20z"/>
<path d="M2305 2020 c10 -11 20 -20 23 -20 3 0 -3 9 -13 20 -10 11 -20 20 -23
20 -3 0 3 -9 13 -20z"/>
<path d="M3601 3752 c-15 -28 1 -77 25 -77 29 0 33 69 5 84 -16 9 -22 8 -30
-7z m26 -54 c-3 -7 -5 -2 -5 12 0 14 2 19 5 13 2 -7 2 -19 0 -25z"/>
<path d="M3806 3346 c-58 -89 -70 -384 -21 -503 36 -87 94 13 115 198 23 198
-37 391 -94 305z m51 -128 c-3 -7 -5 -2 -5 12 0 14 2 19 5 13 2 -7 2 -19 0
-25z m10 -135 c-2 -21 -4 -4 -4 37 0 41 2 58 4 38 2 -21 2 -55 0 -75z m-47 17
c0 -27 -4 -50 -10 -50 -5 0 -10 23 -10 50 0 28 5 50 10 50 6 0 10 -22 10 -50z
m37 -97 c-3 -10 -5 -4 -5 12 0 17 2 24 5 18 2 -7 2 -21 0 -30z m-10 -65 c-3
-7 -5 -2 -5 12 0 14 2 19 5 13 2 -7 2 -19 0 -25z"/>
<path d="M2476 1760 c-29 -9 -66 -37 -66 -51 0 -4 11 3 25 16 24 25 62 31 172
28 18 0 30 4 27 8 -7 11 -120 10 -158 -1z"/>
<path d="M3469 1163 c-13 -16 -12 -17 4 -4 16 13 21 21 13 21 -2 0 -10 -8 -17
-17z"/>
<path d="M3364 1105 c-4 -8 -3 -23 0 -32 6 -15 8 -15 23 -1 16 17 12 48 -7 48
-6 0 -13 -7 -16 -15z"/>
<path d="M2543 658 c-6 -7 -17 -33 -25 -58 l-15 -45 95 5 95 5 13 35 c25 69
23 70 -70 70 -55 0 -87 -4 -93 -12z"/>
<path d="M2704 545 c-9 -48 -31 -58 -122 -51 -50 3 -68 2 -52 -3 39 -14 144
-13 162 2 16 11 37 87 25 87 -4 0 -9 -16 -13 -35z"/>
<path d="M3232 778 c2 -15 11 -24 26 -26 20 -3 23 0 20 20 -2 15 -11 24 -26
26 -20 3 -23 0 -20 -20z"/>
<path d="M4138 363 c12 -2 32 -2 45 0 12 2 2 4 -23 4 -25 0 -35 -2 -22 -4z"/>
<path d="M3602 920 c-70 -146 -213 -241 -450 -299 -125 -32 -192 -60 -192 -81
0 -6 11 -3 24 5 13 9 80 27 148 41 216 43 298 79 393 173 52 52 105 140 105
176 0 9 5 25 10 36 6 10 7 19 3 19 -4 0 -23 -31 -41 -70z"/>
<path d="M3936 955 c-9 -26 -7 -32 5 -12 6 10 9 21 6 23 -2 3 -7 -2 -11 -11z"/>
<path d="M4673 933 c-58 -75 -143 -207 -140 -217 1 -6 48 -41 104 -78 68 -45
112 -82 132 -112 22 -32 59 -62 138 -110 100 -61 112 -66 158 -64 l50 3 3 73
c2 39 -1 72 -5 72 -4 -1 -17 -15 -28 -33 -31 -48 -68 -48 -163 3 -42 23 -97
56 -122 73 -25 17 -91 62 -147 99 -57 37 -103 73 -103 80 0 12 111 179 143
215 19 22 20 22 56 3 60 -31 177 -117 248 -183 37 -34 60 -53 52 -41 -41 59
-264 229 -325 248 -17 5 -28 -1 -51 -31z"/>
<path d="M3901 853 c-12 -38 -23 -85 -26 -104 -3 -19 8 11 24 66 16 55 28 101
26 103 -2 2 -13 -27 -24 -65z"/>
<path d="M1639 721 c-33 -34 -39 -80 -13 -106 16 -15 15 -22 -12 -98 -25 -72
-29 -95 -28 -187 1 -106 28 -292 46 -320 7 -11 8 -8 4 11 -6 29 -31 205 -40
284 -6 46 1 34 81 -128 48 -97 90 -177 95 -177 4 0 -32 81 -82 180 -103 206
-105 219 -62 339 30 83 25 79 175 121 66 19 67 19 67 -1 0 -11 24 -43 53 -73
50 -51 55 -54 142 -71 50 -10 98 -22 107 -27 22 -11 35 -57 43 -153 4 -59 12
-89 29 -115 41 -63 59 -103 66 -155 l8 -50 1 50 c1 44 -5 62 -43 125 -41 67
-45 82 -51 159 -10 141 -20 152 -147 177 -37 7 -84 21 -103 30 -37 17 -95 90
-95 119 0 14 -6 16 -37 10 -35 -6 -74 -19 -128 -40 -19 -8 -19 -7 1 11 12 10
24 33 28 51 11 64 -53 85 -105 34z m82 9 c28 -16 24 -32 -6 -18 -52 24 -97
-41 -58 -84 20 -22 1 -24 -21 -2 -24 23 -19 52 13 85 32 32 42 34 72 19z"/>
<path d="M3684 667 c-26 -24 -37 -43 -41 -74 -7 -52 -13 -58 -116 -100 -99
-41 -133 -49 -306 -73 -74 -11 -139 -24 -145 -30 -6 -6 -10 -37 -8 -70 2 -68
5 -64 -131 -185 -86 -76 -138 -135 -119 -135 5 0 15 11 22 25 7 14 65 70 127
126 l114 101 -3 58 c-1 34 2 64 8 70 7 7 60 18 120 26 178 23 223 34 323 75
111 46 121 53 121 86 0 72 69 134 125 113 53 -20 56 -93 5 -120 l-22 -12 22
30 c18 24 20 33 11 51 -16 29 -55 37 -86 17 -30 -20 -33 -59 -7 -78 18 -12 18
-20 6 -129 -11 -99 -20 -134 -58 -228 -25 -61 -55 -129 -66 -151 -11 -21 -20
-45 -20 -52 1 -20 45 69 95 190 44 109 65 198 65 283 0 45 1 46 40 58 28 8 47
22 60 44 27 43 25 54 -11 88 -42 39 -79 38 -125 -4z"/>
<path d="M4727 392 c-67 -48 -267 -220 -267 -229 0 -2 9 -2 19 2 11 3 49 -6
88 -22 52 -21 82 -41 127 -88 32 -33 53 -50 47 -39 -21 43 -117 119 -181 144
l-63 24 44 39 c82 72 184 154 225 181 48 31 53 30 149 -34 91 -60 108 -69 65
-31 -46 39 -150 101 -171 101 -9 0 -46 -22 -82 -48z"/>
<path d="M910 409 l-25 -20 33 16 c19 9 35 15 37 13 8 -9 35 -68 35 -76 0 -5
-10 -7 -23 -5 -48 9 -72 -58 -26 -72 25 -8 69 20 69 43 0 28 -48 122 -62 122
-7 0 -24 -10 -38 -21z"/>
<path d="M2806 329 c-28 -32 -71 -102 -111 -183 -68 -138 -71 -146 -55 -146 6
0 10 6 10 13 0 29 131 275 170 320 23 26 39 47 37 47 -3 0 -26 -23 -51 -51z"/>
<path d="M597 191 c-56 -54 -139 -191 -114 -191 7 0 28 23 46 51 19 28 62 80
97 117 35 37 64 68 64 69 0 2 -9 3 -21 3 -11 0 -44 -22 -72 -49z"/>
<path d="M2686 69 c-15 -34 -25 -63 -23 -65 2 -2 16 24 30 58 15 34 25 63 23
65 -2 2 -15 -24 -30 -58z"/>
<path d="M4436 98 c-12 -17 -13 -25 -4 -36 10 -12 80 -52 92 -52 2 0 8 14 11
32 6 27 3 36 -19 55 -34 29 -60 29 -80 1z m44 -19 c0 -24 -23 -21 -28 4 -2 10
3 17 12 17 10 0 16 -9 16 -21z"/>
</g>
</svg>